# xmcd
#
# Track frame offsets: 
#        150
#        20576
#        40914
#        60701
#        83491
#        103037
#        122999
#        144086
#        164378
#        193043
#        218284
#        238845
#        259044
#        281558
#        303940
#
# Disc length: 4367 seconds
#
# Revision: 0
# Processed by: cddbd v1.5.2PL0 Copyright (c) Steve Scherf et al.
# Submitted via: ExactAudioCopy v0.95b4
#
DISCID=c9110d0f
DTITLE=Toni Braxton - World Ballads Collection
DYEAR=1900
DGENRE=Ballad
TTITLE0=Find Me A Man
TTITLE1=Breathe Again
TTITLE2=How Could An Angel Break My Heart
TTITLE3=Another Sad Love Song
TTITLE4=I Don't Want To
TTITLE5=Let It Flow
TTITLE6=Candlelight
TTITLE7=Love Affair
TTITLE8=Seven Whole Days
TTITLE9=Talkin In His Step
TTITLE10=Un-Break My Heart
TTITLE11=Why Should I Care
TTITLE12=Love Shoulda Brought You Home
TTITLE13=You Mean The World To Me
TTITLE14=In The Late Of Night
EXTD=
EXTT0=
EXTT1=
EXTT2=
EXTT3=
EXTT4=
EXTT5=
EXTT6=
EXTT7=
EXTT8=
EXTT9=
EXTT10=
EXTT11=
EXTT12=
EXTT13=
EXTT14=
PLAYORDER=
